<?xml version="1.0" encoding="UTF-8" standalone="no"?>
<!DOCTYPE svg PUBLIC "-//W3C//DTD SVG 1.1//EN" "http://www.w3.org/Graphics/SVG/1.1/DTD/svg11.dtd">
<svg width="100%" height="100%" viewBox="0 0 600 245" version="1.1" xmlns="http://www.w3.org/2000/svg" xmlns:xlink="http://www.w3.org/1999/xlink" xml:space="preserve" xmlns:serif="http://www.serif.com/" style="fill-rule:evenodd;clip-rule:evenodd;stroke-linejoin:round;stroke-miterlimit:2;">
    <path d="M235.071,238.986C234.117,238.986 233.248,238.795 232.465,238.413C231.682,238.032 231.052,237.516 230.575,236.867C230.098,236.218 229.859,235.483 229.859,234.662C229.859,233.345 230.394,232.294 231.463,231.512C232.532,230.729 233.926,230.213 235.644,229.965L239.911,229.364L239.911,228.533C239.911,227.617 239.648,226.901 239.123,226.386C238.598,225.87 237.744,225.612 236.56,225.612C235.72,225.612 235.033,225.784 234.498,226.128C233.964,226.471 233.592,226.911 233.382,227.445C233.267,227.732 233.067,227.875 232.78,227.875L231.491,227.875C231.281,227.875 231.124,227.813 231.019,227.689C230.914,227.564 230.861,227.417 230.861,227.245C230.861,226.958 230.971,226.605 231.191,226.185C231.41,225.765 231.749,225.355 232.207,224.954C232.666,224.553 233.253,224.214 233.969,223.937C234.685,223.66 235.558,223.522 236.589,223.522C237.734,223.522 238.699,223.67 239.481,223.966C240.264,224.262 240.88,224.658 241.329,225.154C241.777,225.651 242.102,226.214 242.302,226.844C242.503,227.474 242.603,228.113 242.603,228.762L242.603,238.041C242.603,238.232 242.541,238.389 242.417,238.514C242.293,238.638 242.135,238.7 241.944,238.7L240.627,238.7C240.417,238.7 240.255,238.638 240.14,238.514C240.025,238.389 239.968,238.232 239.968,238.041L239.968,236.81C239.72,237.153 239.386,237.492 238.966,237.826C238.546,238.16 238.021,238.437 237.391,238.657C236.761,238.876 235.988,238.986 235.071,238.986ZM235.673,236.838C236.455,236.838 237.171,236.671 237.82,236.337C238.47,236.003 238.98,235.483 239.353,234.776C239.725,234.07 239.911,233.182 239.911,232.113L239.911,231.311L236.589,231.798C235.233,231.989 234.212,232.309 233.525,232.757C232.837,233.206 232.494,233.774 232.494,234.461C232.494,234.996 232.651,235.44 232.966,235.793C233.281,236.146 233.682,236.409 234.169,236.581C234.656,236.752 235.157,236.838 235.673,236.838Z" style="fill-rule:nonzero;"/>
    <path d="M258.898,238.986C257.829,238.986 256.912,238.852 256.148,238.585C255.385,238.318 254.764,237.993 254.287,237.612C253.81,237.23 253.452,236.848 253.213,236.466C252.974,236.084 252.846,235.779 252.826,235.55C252.807,235.34 252.874,235.177 253.027,235.063C253.18,234.948 253.332,234.891 253.485,234.891L254.774,234.891C254.869,234.891 254.95,234.905 255.017,234.934C255.084,234.963 255.175,235.044 255.289,235.177C255.538,235.445 255.814,235.712 256.12,235.979C256.425,236.246 256.802,236.466 257.251,236.638C257.7,236.81 258.258,236.896 258.926,236.896C259.9,236.896 260.702,236.709 261.332,236.337C261.962,235.965 262.277,235.416 262.277,234.69C262.277,234.213 262.148,233.831 261.89,233.545C261.633,233.259 261.174,233.001 260.516,232.772C259.857,232.543 258.955,232.304 257.809,232.056C256.664,231.789 255.757,231.459 255.089,231.068C254.421,230.676 253.943,230.209 253.657,229.665C253.371,229.12 253.227,228.505 253.227,227.817C253.227,227.111 253.437,226.429 253.857,225.77C254.277,225.111 254.893,224.572 255.705,224.152C256.516,223.732 257.533,223.522 258.754,223.522C259.747,223.522 260.597,223.646 261.303,223.894C262.01,224.142 262.592,224.453 263.05,224.825C263.508,225.197 263.852,225.565 264.081,225.927C264.31,226.29 264.434,226.596 264.453,226.844C264.472,227.035 264.415,227.192 264.282,227.316C264.148,227.44 263.995,227.502 263.823,227.502L262.621,227.502C262.487,227.502 262.377,227.474 262.291,227.417C262.205,227.359 262.124,227.292 262.048,227.216C261.857,226.968 261.633,226.72 261.375,226.471C261.117,226.223 260.783,226.018 260.372,225.856C259.962,225.693 259.423,225.612 258.754,225.612C257.8,225.612 257.084,225.813 256.607,226.214C256.129,226.615 255.891,227.121 255.891,227.732C255.891,228.094 255.996,228.419 256.206,228.705C256.416,228.992 256.817,229.249 257.409,229.478C258,229.708 258.879,229.956 260.043,230.223C261.303,230.471 262.296,230.805 263.021,231.225C263.747,231.645 264.262,232.132 264.568,232.686C264.873,233.239 265.026,233.879 265.026,234.605C265.026,235.406 264.797,236.141 264.339,236.81C263.881,237.478 263.193,238.008 262.277,238.399C261.36,238.79 260.234,238.986 258.898,238.986Z" style="fill-rule:nonzero;"/>
    <path d="M269.035,238.7C268.844,238.7 268.687,238.638 268.563,238.514C268.439,238.389 268.377,238.232 268.377,238.041L268.377,219.026C268.377,218.835 268.439,218.677 268.563,218.553C268.687,218.429 268.844,218.367 269.035,218.367L270.467,218.367C270.677,218.367 270.84,218.429 270.954,218.553C271.069,218.677 271.126,218.835 271.126,219.026L271.126,225.698C271.641,225.049 272.271,224.524 273.016,224.123C273.761,223.722 274.706,223.522 275.851,223.522C277.092,223.522 278.147,223.794 279.016,224.338C279.884,224.882 280.543,225.636 280.992,226.6C281.44,227.564 281.665,228.686 281.665,229.965L281.665,238.041C281.665,238.232 281.607,238.389 281.493,238.514C281.378,238.638 281.216,238.7 281.006,238.7L279.574,238.7C279.383,238.7 279.226,238.638 279.101,238.514C278.977,238.389 278.915,238.232 278.915,238.041L278.915,230.108C278.915,228.772 278.591,227.727 277.942,226.973C277.293,226.219 276.338,225.841 275.078,225.841C273.894,225.841 272.94,226.219 272.214,226.973C271.489,227.727 271.126,228.772 271.126,230.108L271.126,238.041C271.126,238.232 271.069,238.389 270.954,238.514C270.84,238.638 270.677,238.7 270.467,238.7L269.035,238.7Z" style="fill-rule:nonzero;"/>
    <path d="M291.888,238.986C290.437,238.986 289.225,238.709 288.251,238.156C287.278,237.602 286.533,236.834 286.017,235.85C285.502,234.867 285.216,233.745 285.158,232.485C285.139,232.161 285.13,231.746 285.13,231.24C285.13,230.734 285.139,230.328 285.158,230.023C285.216,228.743 285.507,227.617 286.032,226.643C286.557,225.67 287.306,224.906 288.28,224.352C289.254,223.799 290.456,223.522 291.888,223.522C293.32,223.522 294.523,223.799 295.497,224.352C296.47,224.906 297.22,225.67 297.745,226.643C298.27,227.617 298.561,228.743 298.618,230.023C298.637,230.328 298.647,230.734 298.647,231.24C298.647,231.746 298.637,232.161 298.618,232.485C298.561,233.745 298.274,234.867 297.759,235.85C297.243,236.834 296.499,237.602 295.525,238.156C294.551,238.709 293.339,238.986 291.888,238.986ZM291.888,236.781C293.072,236.781 294.017,236.404 294.723,235.65C295.43,234.896 295.812,233.793 295.869,232.342C295.888,232.056 295.897,231.693 295.897,231.254C295.897,230.815 295.888,230.452 295.869,230.166C295.812,228.715 295.43,227.612 294.723,226.858C294.017,226.104 293.072,225.727 291.888,225.727C290.704,225.727 289.755,226.104 289.039,226.858C288.323,227.612 287.946,228.715 287.908,230.166C287.888,230.452 287.879,230.815 287.879,231.254C287.879,231.693 287.888,232.056 287.908,232.342C287.946,233.793 288.323,234.896 289.039,235.65C289.755,236.404 290.704,236.781 291.888,236.781Z" style="fill-rule:nonzero;"/>
    <path d="M302.885,238.7C302.694,238.7 302.537,238.638 302.412,238.514C302.288,238.389 302.226,238.232 302.226,238.041L302.226,224.495C302.226,224.305 302.288,224.142 302.412,224.009C302.537,223.875 302.694,223.808 302.885,223.808L304.202,223.808C304.393,223.808 304.556,223.875 304.689,224.009C304.823,224.142 304.89,224.305 304.89,224.495L304.89,225.756C305.271,225.106 305.796,224.62 306.465,224.295C307.133,223.97 307.944,223.808 308.899,223.808L310.016,223.808C310.207,223.808 310.364,223.87 310.488,223.994C310.612,224.118 310.674,224.276 310.674,224.467L310.674,225.641C310.674,225.832 310.612,225.985 310.488,226.099C310.364,226.214 310.207,226.271 310.016,226.271L308.298,226.271C307.267,226.271 306.455,226.572 305.863,227.173C305.271,227.774 304.976,228.591 304.976,229.622L304.976,238.041C304.976,238.232 304.909,238.389 304.775,238.514C304.641,238.638 304.479,238.7 304.288,238.7L302.885,238.7Z" style="fill-rule:nonzero;"/>
    <path d="M318.922,238.7C317.853,238.7 316.984,238.494 316.316,238.084C315.648,237.674 315.161,237.091 314.856,236.337C314.55,235.583 314.397,234.69 314.397,233.66L314.397,226.099L312.164,226.099C311.973,226.099 311.815,226.037 311.691,225.913C311.567,225.789 311.505,225.631 311.505,225.441L311.505,224.467C311.505,224.276 311.567,224.118 311.691,223.994C311.815,223.87 311.973,223.808 312.164,223.808L314.397,223.808L314.397,219.026C314.397,218.835 314.459,218.677 314.583,218.553C314.708,218.429 314.865,218.367 315.056,218.367L316.402,218.367C316.593,218.367 316.75,218.429 316.874,218.553C316.999,218.677 317.061,218.835 317.061,219.026L317.061,223.808L320.612,223.808C320.822,223.808 320.984,223.87 321.099,223.994C321.213,224.118 321.27,224.276 321.27,224.467L321.27,225.441C321.27,225.631 321.213,225.789 321.099,225.913C320.984,226.037 320.822,226.099 320.612,226.099L317.061,226.099L317.061,233.459C317.061,234.356 317.213,235.063 317.519,235.578C317.824,236.094 318.368,236.351 319.151,236.351L320.898,236.351C321.089,236.351 321.246,236.413 321.371,236.538C321.495,236.662 321.557,236.819 321.557,237.01L321.557,238.041C321.557,238.232 321.495,238.389 321.371,238.514C321.246,238.638 321.089,238.7 320.898,238.7L318.922,238.7Z" style="fill-rule:nonzero;"/>
    <path d="M336.477,238.986C335.408,238.986 334.491,238.852 333.728,238.585C332.964,238.318 332.344,237.993 331.866,237.612C331.389,237.23 331.031,236.848 330.792,236.466C330.554,236.084 330.425,235.779 330.406,235.55C330.387,235.34 330.453,235.177 330.606,235.063C330.759,234.948 330.912,234.891 331.064,234.891L332.353,234.891C332.449,234.891 332.53,234.905 332.597,234.934C332.663,234.963 332.754,235.044 332.869,235.177C333.117,235.445 333.394,235.712 333.699,235.979C334.005,236.246 334.382,236.466 334.83,236.638C335.279,236.81 335.837,236.896 336.506,236.896C337.479,236.896 338.281,236.709 338.911,236.337C339.541,235.965 339.856,235.416 339.856,234.69C339.856,234.213 339.727,233.831 339.47,233.545C339.212,233.259 338.754,233.001 338.095,232.772C337.436,232.543 336.534,232.304 335.389,232.056C334.243,231.789 333.336,231.459 332.668,231.068C332,230.676 331.523,230.209 331.236,229.665C330.95,229.12 330.807,228.505 330.807,227.817C330.807,227.111 331.017,226.429 331.437,225.77C331.857,225.111 332.472,224.572 333.284,224.152C334.095,223.732 335.112,223.522 336.334,223.522C337.326,223.522 338.176,223.646 338.882,223.894C339.589,224.142 340.171,224.453 340.629,224.825C341.088,225.197 341.431,225.565 341.66,225.927C341.889,226.29 342.013,226.596 342.033,226.844C342.052,227.035 341.994,227.192 341.861,227.316C341.727,227.44 341.574,227.502 341.403,227.502L340.2,227.502C340.066,227.502 339.956,227.474 339.87,227.417C339.785,227.359 339.703,227.292 339.627,227.216C339.436,226.968 339.212,226.72 338.954,226.471C338.696,226.223 338.362,226.018 337.952,225.856C337.541,225.693 337.002,225.612 336.334,225.612C335.379,225.612 334.663,225.813 334.186,226.214C333.709,226.615 333.47,227.121 333.47,227.732C333.47,228.094 333.575,228.419 333.785,228.705C333.995,228.992 334.396,229.249 334.988,229.478C335.58,229.708 336.458,229.956 337.622,230.223C338.882,230.471 339.875,230.805 340.601,231.225C341.326,231.645 341.842,232.132 342.147,232.686C342.453,233.239 342.605,233.879 342.605,234.605C342.605,235.406 342.376,236.141 341.918,236.81C341.46,237.478 340.773,238.008 339.856,238.399C338.94,238.79 337.813,238.986 336.477,238.986Z" style="fill-rule:nonzero;"/>
    <path d="M351.712,238.7C350.643,238.7 349.774,238.494 349.106,238.084C348.438,237.674 347.951,237.091 347.646,236.337C347.34,235.583 347.187,234.69 347.187,233.66L347.187,226.099L344.954,226.099C344.763,226.099 344.605,226.037 344.481,225.913C344.357,225.789 344.295,225.631 344.295,225.441L344.295,224.467C344.295,224.276 344.357,224.118 344.481,223.994C344.605,223.87 344.763,223.808 344.954,223.808L347.187,223.808L347.187,219.026C347.187,218.835 347.249,218.677 347.373,218.553C347.498,218.429 347.655,218.367 347.846,218.367L349.192,218.367C349.383,218.367 349.54,218.429 349.665,218.553C349.789,218.677 349.851,218.835 349.851,219.026L349.851,223.808L353.402,223.808C353.612,223.808 353.774,223.87 353.889,223.994C354.003,224.118 354.06,224.276 354.06,224.467L354.06,225.441C354.06,225.631 354.003,225.789 353.889,225.913C353.774,226.037 353.612,226.099 353.402,226.099L349.851,226.099L349.851,233.459C349.851,234.356 350.003,235.063 350.309,235.578C350.614,236.094 351.158,236.351 351.941,236.351L353.688,236.351C353.879,236.351 354.037,236.413 354.161,236.538C354.285,236.662 354.347,236.819 354.347,237.01L354.347,238.041C354.347,238.232 354.285,238.389 354.161,238.514C354.037,238.638 353.879,238.7 353.688,238.7L351.712,238.7Z" style="fill-rule:nonzero;"/>
    <path d="M363.196,238.986C361.745,238.986 360.532,238.709 359.559,238.156C358.585,237.602 357.841,236.834 357.325,235.85C356.81,234.867 356.523,233.745 356.466,232.485C356.447,232.161 356.437,231.746 356.437,231.24C356.437,230.734 356.447,230.328 356.466,230.023C356.523,228.743 356.814,227.617 357.339,226.643C357.864,225.67 358.614,224.906 359.587,224.352C360.561,223.799 361.764,223.522 363.196,223.522C364.628,223.522 365.83,223.799 366.804,224.352C367.778,224.906 368.527,225.67 369.052,226.643C369.577,227.617 369.868,228.743 369.926,230.023C369.945,230.328 369.954,230.734 369.954,231.24C369.954,231.746 369.945,232.161 369.926,232.485C369.868,233.745 369.582,234.867 369.066,235.85C368.551,236.834 367.806,237.602 366.833,238.156C365.859,238.709 364.647,238.986 363.196,238.986ZM363.196,236.781C364.379,236.781 365.324,236.404 366.031,235.65C366.737,234.896 367.119,233.793 367.176,232.342C367.195,232.056 367.205,231.693 367.205,231.254C367.205,230.815 367.195,230.452 367.176,230.166C367.119,228.715 366.737,227.612 366.031,226.858C365.324,226.104 364.379,225.727 363.196,225.727C362.012,225.727 361.062,226.104 360.346,226.858C359.63,227.612 359.253,228.715 359.215,230.166C359.196,230.452 359.187,230.815 359.187,231.254C359.187,231.693 359.196,232.056 359.215,232.342C359.253,233.793 359.63,234.896 360.346,235.65C361.062,236.404 362.012,236.781 363.196,236.781Z" style="fill-rule:nonzero;"/>
    <path d="M374.193,238.7C374.002,238.7 373.844,238.638 373.72,238.514C373.596,238.389 373.534,238.232 373.534,238.041L373.534,224.495C373.534,224.305 373.596,224.142 373.72,224.009C373.844,223.875 374.002,223.808 374.193,223.808L375.51,223.808C375.701,223.808 375.863,223.875 375.997,224.009C376.13,224.142 376.197,224.305 376.197,224.495L376.197,225.756C376.579,225.106 377.104,224.62 377.772,224.295C378.441,223.97 379.252,223.808 380.206,223.808L381.323,223.808C381.514,223.808 381.672,223.87 381.796,223.994C381.92,224.118 381.982,224.276 381.982,224.467L381.982,225.641C381.982,225.832 381.92,225.985 381.796,226.099C381.672,226.214 381.514,226.271 381.323,226.271L379.605,226.271C378.574,226.271 377.763,226.572 377.171,227.173C376.579,227.774 376.283,228.591 376.283,229.622L376.283,238.041C376.283,238.232 376.216,238.389 376.083,238.514C375.949,238.638 375.787,238.7 375.596,238.7L374.193,238.7Z" style="fill-rule:nonzero;"/>
    <path d="M387.022,244.141C386.87,244.141 386.736,244.084 386.621,243.969C386.507,243.854 386.449,243.721 386.449,243.568C386.449,243.492 386.459,243.415 386.478,243.339C386.497,243.263 386.535,243.167 386.593,243.053L388.798,237.812L383.328,224.896C383.233,224.667 383.185,224.505 383.185,224.41C383.185,224.238 383.242,224.095 383.357,223.98C383.471,223.865 383.614,223.808 383.786,223.808L385.189,223.808C385.399,223.808 385.557,223.856 385.662,223.951C385.767,224.047 385.839,224.161 385.877,224.295L390.23,234.719L394.697,224.295C394.754,224.161 394.836,224.047 394.941,223.951C395.046,223.856 395.203,223.808 395.413,223.808L396.759,223.808C396.931,223.808 397.074,223.865 397.189,223.98C397.303,224.095 397.36,224.228 397.36,224.381C397.36,224.476 397.313,224.648 397.217,224.896L389.084,243.654C389.027,243.788 388.946,243.902 388.841,243.998C388.736,244.093 388.578,244.141 388.368,244.141L387.022,244.141Z" style="fill-rule:nonzero;"/>
    <path d="M409.789,238.7C409.541,238.7 409.35,238.638 409.216,238.514C409.083,238.389 408.968,238.213 408.873,237.984L404.806,224.696C404.768,224.6 404.749,224.505 404.749,224.41C404.749,224.238 404.811,224.095 404.935,223.98C405.059,223.865 405.198,223.808 405.35,223.808L406.61,223.808C406.82,223.808 406.983,223.865 407.097,223.98C407.212,224.095 407.288,224.2 407.326,224.295L410.505,235.091L413.913,224.41C413.951,224.276 414.032,224.142 414.156,224.009C414.28,223.875 414.467,223.808 414.715,223.808L415.688,223.808C415.937,223.808 416.128,223.875 416.261,224.009C416.395,224.142 416.471,224.276 416.49,224.41L419.898,235.091L423.077,224.295C423.096,224.2 423.163,224.095 423.277,223.98C423.392,223.865 423.554,223.808 423.764,223.808L425.053,223.808C425.206,223.808 425.339,223.865 425.454,223.98C425.568,224.095 425.626,224.238 425.626,224.41C425.626,224.505 425.607,224.6 425.568,224.696L421.531,237.984C421.454,238.213 421.349,238.389 421.216,238.514C421.082,238.638 420.872,238.7 420.585,238.7L419.469,238.7C419.22,238.7 419.015,238.638 418.853,238.514C418.691,238.389 418.581,238.213 418.524,237.984L415.202,227.732L411.88,237.984C411.803,238.213 411.689,238.389 411.536,238.514C411.383,238.638 411.173,238.7 410.906,238.7L409.789,238.7Z" style="fill-rule:nonzero;"/>
    <path d="M429.463,238.7C429.272,238.7 429.115,238.638 428.991,238.514C428.867,238.389 428.804,238.232 428.804,238.041L428.804,224.467C428.804,224.276 428.867,224.118 428.991,223.994C429.115,223.87 429.272,223.808 429.463,223.808L430.838,223.808C431.029,223.808 431.186,223.87 431.31,223.994C431.434,224.118 431.496,224.276 431.496,224.467L431.496,238.041C431.496,238.232 431.434,238.389 431.31,238.514C431.186,238.638 431.029,238.7 430.838,238.7L429.463,238.7ZM429.234,221.03C429.043,221.03 428.886,220.968 428.762,220.844C428.637,220.72 428.575,220.563 428.575,220.372L428.575,218.825C428.575,218.634 428.637,218.472 428.762,218.338C428.886,218.205 429.043,218.138 429.234,218.138L431.038,218.138C431.229,218.138 431.391,218.205 431.525,218.338C431.659,218.472 431.726,218.634 431.726,218.825L431.726,220.372C431.726,220.563 431.659,220.72 431.525,220.844C431.391,220.968 431.229,221.03 431.038,221.03L429.234,221.03Z" style="fill-rule:nonzero;"/>
    <path d="M441.548,238.7C440.479,238.7 439.61,238.494 438.942,238.084C438.274,237.674 437.787,237.091 437.482,236.337C437.176,235.583 437.023,234.69 437.023,233.66L437.023,226.099L434.79,226.099C434.599,226.099 434.441,226.037 434.317,225.913C434.193,225.789 434.131,225.631 434.131,225.441L434.131,224.467C434.131,224.276 434.193,224.118 434.317,223.994C434.441,223.87 434.599,223.808 434.79,223.808L437.023,223.808L437.023,219.026C437.023,218.835 437.086,218.677 437.21,218.553C437.334,218.429 437.491,218.367 437.682,218.367L439.028,218.367C439.219,218.367 439.377,218.429 439.501,218.553C439.625,218.677 439.687,218.835 439.687,219.026L439.687,223.808L443.238,223.808C443.448,223.808 443.61,223.87 443.725,223.994C443.839,224.118 443.896,224.276 443.896,224.467L443.896,225.441C443.896,225.631 443.839,225.789 443.725,225.913C443.61,226.037 443.448,226.099 443.238,226.099L439.687,226.099L439.687,233.459C439.687,234.356 439.84,235.063 440.145,235.578C440.45,236.094 440.995,236.351 441.777,236.351L443.524,236.351C443.715,236.351 443.873,236.413 443.997,236.538C444.121,236.662 444.183,236.819 444.183,237.01L444.183,238.041C444.183,238.232 444.121,238.389 443.997,238.514C443.873,238.638 443.715,238.7 443.524,238.7L441.548,238.7Z" style="fill-rule:nonzero;"/>
    <path d="M447.619,238.7C447.428,238.7 447.271,238.638 447.147,238.514C447.023,238.389 446.961,238.232 446.961,238.041L446.961,219.026C446.961,218.835 447.023,218.677 447.147,218.553C447.271,218.429 447.428,218.367 447.619,218.367L449.051,218.367C449.261,218.367 449.424,218.429 449.538,218.553C449.653,218.677 449.71,218.835 449.71,219.026L449.71,225.698C450.225,225.049 450.855,224.524 451.6,224.123C452.345,223.722 453.29,223.522 454.435,223.522C455.676,223.522 456.731,223.794 457.6,224.338C458.468,224.882 459.127,225.636 459.576,226.6C460.024,227.564 460.249,228.686 460.249,229.965L460.249,238.041C460.249,238.232 460.191,238.389 460.077,238.514C459.962,238.638 459.8,238.7 459.59,238.7L458.158,238.7C457.967,238.7 457.81,238.638 457.685,238.514C457.561,238.389 457.499,238.232 457.499,238.041L457.499,230.108C457.499,228.772 457.175,227.727 456.526,226.973C455.877,226.219 454.922,225.841 453.662,225.841C452.478,225.841 451.524,226.219 450.798,226.973C450.073,227.727 449.71,228.772 449.71,230.108L449.71,238.041C449.71,238.232 449.653,238.389 449.538,238.514C449.424,238.638 449.261,238.7 449.051,238.7L447.619,238.7Z" style="fill-rule:nonzero;"/>
    <path d="M472.047,238.7C471.856,238.7 471.699,238.638 471.575,238.514C471.451,238.389 471.389,238.232 471.389,238.041L471.389,224.467C471.389,224.276 471.451,224.118 471.575,223.994C471.699,223.87 471.856,223.808 472.047,223.808L473.393,223.808C473.584,223.808 473.742,223.87 473.866,223.994C473.99,224.118 474.052,224.276 474.052,224.467L474.052,225.727C474.548,225.078 475.174,224.548 475.928,224.138C476.682,223.727 477.651,223.522 478.834,223.522C480.075,223.522 481.13,223.794 481.999,224.338C482.867,224.882 483.526,225.636 483.975,226.6C484.423,227.564 484.648,228.686 484.648,229.965L484.648,238.041C484.648,238.232 484.586,238.389 484.462,238.514C484.338,238.638 484.18,238.7 483.989,238.7L482.557,238.7C482.366,238.7 482.209,238.638 482.085,238.514C481.961,238.389 481.899,238.232 481.899,238.041L481.899,230.108C481.899,228.772 481.574,227.727 480.925,226.973C480.276,226.219 479.321,225.841 478.061,225.841C476.877,225.841 475.928,226.219 475.212,226.973C474.496,227.727 474.138,228.772 474.138,230.108L474.138,238.041C474.138,238.232 474.076,238.389 473.952,238.514C473.828,238.638 473.67,238.7 473.479,238.7L472.047,238.7Z" style="fill-rule:nonzero;"/>
    <path d="M494.843,238.986C493.392,238.986 492.179,238.709 491.206,238.156C490.232,237.602 489.488,236.834 488.972,235.85C488.457,234.867 488.17,233.745 488.113,232.485C488.094,232.161 488.084,231.746 488.084,231.24C488.084,230.734 488.094,230.328 488.113,230.023C488.17,228.743 488.461,227.617 488.986,226.643C489.511,225.67 490.261,224.906 491.234,224.352C492.208,223.799 493.411,223.522 494.843,223.522C496.275,223.522 497.477,223.799 498.451,224.352C499.425,224.906 500.174,225.67 500.699,226.643C501.224,227.617 501.515,228.743 501.573,230.023C501.592,230.328 501.601,230.734 501.601,231.24C501.601,231.746 501.592,232.161 501.573,232.485C501.515,233.745 501.229,234.867 500.713,235.85C500.198,236.834 499.453,237.602 498.48,238.156C497.506,238.709 496.294,238.986 494.843,238.986ZM494.843,236.781C496.026,236.781 496.971,236.404 497.678,235.65C498.384,234.896 498.766,233.793 498.823,232.342C498.842,232.056 498.852,231.693 498.852,231.254C498.852,230.815 498.842,230.452 498.823,230.166C498.766,228.715 498.384,227.612 497.678,226.858C496.971,226.104 496.026,225.727 494.843,225.727C493.659,225.727 492.709,226.104 491.993,226.858C491.277,227.612 490.9,228.715 490.862,230.166C490.843,230.452 490.834,230.815 490.834,231.254C490.834,231.693 490.843,232.056 490.862,232.342C490.9,233.793 491.277,234.896 491.993,235.65C492.709,236.404 493.659,236.781 494.843,236.781Z" style="fill-rule:nonzero;"/>
    <path d="M518.154,238.986C516.168,238.986 514.593,238.38 513.429,237.168C512.264,235.955 511.624,234.299 511.51,232.199C511.491,231.951 511.481,231.631 511.481,231.24C511.481,230.848 511.491,230.528 511.51,230.28C511.586,228.925 511.901,227.736 512.455,226.715C513.009,225.693 513.767,224.906 514.732,224.352C515.696,223.799 516.827,223.522 518.125,223.522C519.576,223.522 520.793,223.827 521.776,224.438C522.76,225.049 523.509,225.918 524.024,227.044C524.54,228.171 524.798,229.488 524.798,230.996L524.798,231.483C524.798,231.693 524.736,231.855 524.612,231.97C524.487,232.084 524.33,232.142 524.139,232.142L514.23,232.142L514.23,232.399C514.269,233.182 514.44,233.912 514.746,234.59C515.051,235.268 515.495,235.817 516.078,236.237C516.66,236.657 517.342,236.867 518.125,236.867C518.812,236.867 519.385,236.762 519.843,236.552C520.302,236.342 520.674,236.108 520.96,235.85C521.247,235.593 521.438,235.387 521.533,235.235C521.705,235.005 521.838,234.867 521.934,234.819C522.029,234.772 522.182,234.748 522.392,234.748L523.795,234.748C523.967,234.748 524.115,234.8 524.239,234.905C524.363,235.01 524.416,235.158 524.397,235.349C524.378,235.636 524.225,235.984 523.939,236.394C523.652,236.805 523.246,237.211 522.721,237.612C522.196,238.012 521.547,238.342 520.774,238.599C520.001,238.857 519.127,238.986 518.154,238.986ZM514.23,230.166L522.077,230.166L522.077,230.08C522.077,229.221 521.92,228.457 521.605,227.789C521.29,227.121 520.836,226.591 520.244,226.199C519.652,225.808 518.946,225.612 518.125,225.612C517.304,225.612 516.603,225.808 516.02,226.199C515.438,226.591 514.994,227.121 514.689,227.789C514.383,228.457 514.23,229.221 514.23,230.08L514.23,230.166Z" style="fill-rule:nonzero;"/>
    <path d="M528.893,238.7C528.702,238.7 528.544,238.638 528.42,238.514C528.296,238.389 528.234,238.232 528.234,238.041L528.234,224.467C528.234,224.276 528.296,224.118 528.42,223.994C528.544,223.87 528.702,223.808 528.893,223.808L530.239,223.808C530.43,223.808 530.587,223.87 530.711,223.994C530.835,224.118 530.897,224.276 530.897,224.467L530.897,225.727C531.394,225.078 532.019,224.548 532.773,224.138C533.527,223.727 534.496,223.522 535.68,223.522C536.921,223.522 537.976,223.794 538.844,224.338C539.713,224.882 540.372,225.636 540.82,226.6C541.269,227.564 541.493,228.686 541.493,229.965L541.493,238.041C541.493,238.232 541.431,238.389 541.307,238.514C541.183,238.638 541.026,238.7 540.835,238.7L539.403,238.7C539.212,238.7 539.054,238.638 538.93,238.514C538.806,238.389 538.744,238.232 538.744,238.041L538.744,230.108C538.744,228.772 538.42,227.727 537.771,226.973C537.121,226.219 536.167,225.841 534.907,225.841C533.723,225.841 532.773,226.219 532.057,226.973C531.341,227.727 530.983,228.772 530.983,230.108L530.983,238.041C530.983,238.232 530.921,238.389 530.797,238.514C530.673,238.638 530.516,238.7 530.325,238.7L528.893,238.7Z" style="fill-rule:nonzero;"/>
    <path d="M551.03,238.986C549.98,238.986 549.073,238.8 548.309,238.428C547.545,238.055 546.92,237.549 546.433,236.91C545.947,236.27 545.584,235.54 545.345,234.719C545.107,233.898 544.968,233.029 544.93,232.113C544.911,231.808 544.901,231.521 544.901,231.254C544.901,230.987 544.911,230.7 544.93,230.395C544.968,229.498 545.107,228.638 545.345,227.817C545.584,226.997 545.947,226.261 546.433,225.612C546.92,224.963 547.545,224.453 548.309,224.08C549.073,223.708 549.98,223.522 551.03,223.522C552.156,223.522 553.092,223.722 553.836,224.123C554.581,224.524 555.192,225.021 555.669,225.612L555.669,219.026C555.669,218.835 555.731,218.677 555.855,218.553C555.979,218.429 556.137,218.367 556.328,218.367L557.702,218.367C557.893,218.367 558.051,218.429 558.175,218.553C558.299,218.677 558.361,218.835 558.361,219.026L558.361,238.041C558.361,238.232 558.299,238.389 558.175,238.514C558.051,238.638 557.893,238.7 557.702,238.7L556.414,238.7C556.204,238.7 556.041,238.638 555.927,238.514C555.812,238.389 555.755,238.232 555.755,238.041L555.755,236.838C555.278,237.449 554.657,237.96 553.893,238.37C553.13,238.781 552.175,238.986 551.03,238.986ZM551.631,236.666C552.586,236.666 553.349,236.447 553.922,236.008C554.495,235.569 554.924,235.01 555.211,234.332C555.497,233.655 555.65,232.963 555.669,232.256C555.688,231.951 555.698,231.583 555.698,231.154C555.698,230.724 555.688,230.357 555.669,230.051C555.65,229.383 555.492,228.724 555.196,228.075C554.901,227.426 554.461,226.891 553.879,226.471C553.297,226.051 552.548,225.841 551.631,225.841C550.657,225.841 549.884,226.056 549.311,226.486C548.739,226.915 548.328,227.479 548.08,228.175C547.832,228.872 547.689,229.622 547.65,230.423C547.631,230.977 547.631,231.531 547.65,232.084C547.689,232.886 547.832,233.636 548.08,234.332C548.328,235.029 548.739,235.593 549.311,236.022C549.884,236.452 550.657,236.666 551.631,236.666Z" style="fill-rule:nonzero;"/>
    <path d="M563.287,238.7C563.096,238.7 562.938,238.638 562.814,238.514C562.69,238.389 562.628,238.232 562.628,238.041L562.628,224.467C562.628,224.276 562.69,224.118 562.814,223.994C562.938,223.87 563.096,223.808 563.287,223.808L564.661,223.808C564.852,223.808 565.01,223.87 565.134,223.994C565.258,224.118 565.32,224.276 565.32,224.467L565.32,238.041C565.32,238.232 565.258,238.389 565.134,238.514C565.01,238.638 564.852,238.7 564.661,238.7L563.287,238.7ZM563.058,221.03C562.867,221.03 562.709,220.968 562.585,220.844C562.461,220.72 562.399,220.563 562.399,220.372L562.399,218.825C562.399,218.634 562.461,218.472 562.585,218.338C562.709,218.205 562.867,218.138 563.058,218.138L564.862,218.138C565.053,218.138 565.215,218.205 565.349,218.338C565.482,218.472 565.549,218.634 565.549,218.825L565.549,220.372C565.549,220.563 565.482,220.72 565.349,220.844C565.215,220.968 565.053,221.03 564.862,221.03L563.058,221.03Z" style="fill-rule:nonzero;"/>
    <path d="M570.475,238.7C570.284,238.7 570.126,238.638 570.002,238.514C569.878,238.389 569.816,238.232 569.816,238.041L569.816,224.467C569.816,224.276 569.878,224.118 570.002,223.994C570.126,223.87 570.284,223.808 570.475,223.808L571.821,223.808C572.012,223.808 572.169,223.87 572.293,223.994C572.417,224.118 572.479,224.276 572.479,224.467L572.479,225.727C572.976,225.078 573.601,224.548 574.355,224.138C575.109,223.727 576.078,223.522 577.262,223.522C578.503,223.522 579.558,223.794 580.426,224.338C581.295,224.882 581.954,225.636 582.402,226.6C582.851,227.564 583.075,228.686 583.075,229.965L583.075,238.041C583.075,238.232 583.013,238.389 582.889,238.514C582.765,238.638 582.607,238.7 582.417,238.7L580.985,238.7C580.794,238.7 580.636,238.638 580.512,238.514C580.388,238.389 580.326,238.232 580.326,238.041L580.326,230.108C580.326,228.772 580.001,227.727 579.352,226.973C578.703,226.219 577.749,225.841 576.489,225.841C575.305,225.841 574.355,226.219 573.639,226.973C572.923,227.727 572.565,228.772 572.565,230.108L572.565,238.041C572.565,238.232 572.503,238.389 572.379,238.514C572.255,238.638 572.097,238.7 571.907,238.7L570.475,238.7Z" style="fill-rule:nonzero;"/>
    <path d="M593.27,245C591.972,245 590.908,244.828 590.077,244.485C589.247,244.141 588.597,243.726 588.13,243.239C587.662,242.752 587.328,242.265 587.127,241.778C586.927,241.291 586.817,240.905 586.798,240.618C586.779,240.428 586.841,240.265 586.984,240.132C587.127,239.998 587.285,239.931 587.457,239.931L588.831,239.931C589.003,239.931 589.146,239.969 589.261,240.046C589.375,240.122 589.471,240.284 589.547,240.533C589.662,240.819 589.834,241.139 590.063,241.492C590.292,241.845 590.645,242.151 591.122,242.408C591.6,242.666 592.268,242.795 593.127,242.795C594.024,242.795 594.778,242.671 595.389,242.423C596,242.174 596.463,241.754 596.778,241.163C597.093,240.571 597.251,239.75 597.251,238.7L597.251,236.752C596.793,237.344 596.191,237.836 595.447,238.227C594.702,238.619 593.767,238.814 592.64,238.814C591.571,238.814 590.655,238.628 589.891,238.256C589.127,237.884 588.502,237.378 588.015,236.738C587.528,236.098 587.166,235.368 586.927,234.547C586.688,233.726 586.55,232.867 586.512,231.97C586.493,231.435 586.493,230.91 586.512,230.395C586.55,229.498 586.688,228.638 586.927,227.817C587.166,226.997 587.528,226.261 588.015,225.612C588.502,224.963 589.127,224.453 589.891,224.08C590.655,223.708 591.571,223.522 592.64,223.522C593.786,223.522 594.735,223.732 595.49,224.152C596.244,224.572 596.859,225.097 597.337,225.727L597.337,224.495C597.337,224.305 597.399,224.142 597.523,224.009C597.647,223.875 597.804,223.808 597.995,223.808L599.313,223.808C599.504,223.808 599.666,223.875 599.8,224.009C599.933,224.142 600,224.305 600,224.495L600,238.385C600,239.664 599.785,240.8 599.356,241.793C598.926,242.785 598.22,243.568 597.236,244.141C596.253,244.714 594.931,245 593.27,245ZM593.213,236.523C594.167,236.523 594.936,236.304 595.518,235.865C596.101,235.425 596.53,234.872 596.807,234.204C597.084,233.535 597.232,232.858 597.251,232.17C597.27,231.903 597.279,231.574 597.279,231.182C597.279,230.791 597.27,230.462 597.251,230.194C597.232,229.507 597.084,228.829 596.807,228.161C596.53,227.493 596.101,226.939 595.518,226.5C594.936,226.061 594.167,225.841 593.213,225.841C592.258,225.841 591.495,226.056 590.922,226.486C590.349,226.915 589.939,227.479 589.69,228.175C589.442,228.872 589.299,229.622 589.261,230.423C589.242,230.92 589.242,231.426 589.261,231.941C589.299,232.743 589.442,233.492 589.69,234.189C589.939,234.886 590.349,235.449 590.922,235.879C591.495,236.308 592.258,236.523 593.213,236.523Z" style="fill-rule:nonzero;"/>
    <rect x="0" y="204.347" width="600" height="4.528" style=""/>
    <path d="M280.503,127.233L280.503,107.795L229.256,107.795L229.256,189.083L280.503,189.083L280.503,169.645L249.283,169.645L249.283,157.864L270.489,157.864L270.489,139.014L249.283,139.014L249.283,127.233L280.503,127.233ZM112.743,189.083L139.014,189.083C152.68,189.083 163.872,179.069 163.872,164.108C163.872,157.157 161.516,150.677 156.686,146.554C152.327,142.784 145.847,140.899 137.836,138.543C134.184,137.483 132.535,135.244 132.535,132.299C132.535,129.472 134.066,127.233 138.19,127.233L153.858,127.233L153.858,107.795L142.902,107.795C134.773,107.795 132.535,108.031 130.532,108.502C118.751,110.976 112.507,120.636 112.507,132.181C112.507,138.779 114.51,144.551 118.869,149.028C122.875,153.151 127.705,154.683 138.307,158.217C141.135,159.16 143.844,161.28 143.844,164.461C143.844,167.288 141.606,169.645 136.658,169.645L112.743,169.645L112.743,189.083ZM0.236,189.083L26.507,189.083C40.173,189.083 51.365,179.069 51.365,164.108C51.365,157.157 49.008,150.677 44.178,146.554C39.819,142.784 33.34,140.899 25.329,138.543C21.677,137.483 20.027,135.244 20.027,132.299C20.027,129.472 21.559,127.233 25.682,127.233L41.351,127.233L41.351,107.795L30.395,107.795C22.266,107.795 20.027,108.031 18.025,108.502C6.244,110.976 0,120.636 0,132.181C0,138.779 2.003,144.551 6.362,149.028C10.367,153.151 15.197,154.683 25.8,158.217C28.628,159.16 31.337,161.28 31.337,164.461C31.337,167.288 29.099,169.645 24.151,169.645L0.236,169.645L0.236,189.083ZM289.927,189.083L309.955,189.083L309.955,127.823C317.612,128.176 326.448,133.595 326.448,144.905L326.448,189.083L344.826,189.083L344.826,144.905C344.826,133.595 353.662,128.176 361.319,127.823L361.319,189.083L381.347,189.083L381.347,107.795L361.319,107.795C350.363,107.795 339.76,113.685 335.637,119.576C331.514,113.685 320.911,107.795 309.955,107.795L289.927,107.795L289.927,189.083ZM219.831,107.795L163.283,107.795L163.283,127.233L181.543,127.233L181.543,189.083L201.571,189.083L201.571,127.233L219.831,127.233L219.831,107.795ZM70.803,189.083L90.831,189.083L90.831,149.028L112.625,107.795L91.42,107.795L80.817,127.823L70.214,107.795L49.008,107.795L70.803,149.028L70.803,189.083ZM367.21,84.822C391.007,84.822 409.857,65.973 409.857,42.293C409.857,18.732 391.007,0 367.21,0C343.53,0 324.799,18.732 324.799,42.293C324.799,65.973 343.53,84.822 367.21,84.822ZM56.902,1.767L0.353,1.767L0.353,21.206L18.614,21.206L18.614,83.055L38.641,83.055L38.641,21.206L56.902,21.206L56.902,1.767ZM301.473,63.617L301.473,1.767L281.445,1.767L281.445,83.055L321.5,83.055L321.5,63.617L301.473,63.617ZM270.842,83.055L272.02,83.055L272.02,63.617L270.842,63.617C264.127,63.617 259.415,62.321 255.645,59.729C250.461,56.195 246.692,49.48 246.692,42.411C246.692,35.343 250.461,28.628 255.645,25.093C259.415,22.501 264.127,21.206 270.842,21.206L272.02,21.206L272.02,1.767L270.842,1.767C264.363,1.767 260.357,2.238 256.705,3.181C239.505,7.54 226.664,23.444 226.664,42.411C226.664,61.143 239.387,77.165 256.587,81.641C260.357,82.584 264.598,83.055 270.842,83.055ZM190.615,21.206L190.615,1.767L139.368,1.767L139.368,83.055L190.615,83.055L190.615,63.617L159.395,63.617L159.395,51.836L180.601,51.836L180.601,32.986L159.395,32.986L159.395,21.206L190.615,21.206ZM526.959,21.206L526.959,1.767L475.712,1.767L475.712,83.055L526.959,83.055L526.959,63.617L495.739,63.617L495.739,51.836L516.945,51.836L516.945,32.986L495.739,32.986L495.739,21.206L526.959,21.206ZM416.336,83.055L442.608,83.055C456.273,83.055 467.465,73.041 467.465,58.08C467.465,51.129 465.109,44.65 460.279,40.526C455.92,36.756 449.44,34.871 441.429,32.515C437.777,31.455 436.128,29.217 436.128,26.271C436.128,23.444 437.66,21.206 441.783,21.206L457.451,21.206L457.451,1.767L446.495,1.767C438.366,1.767 436.128,2.003 434.125,2.474C422.344,4.948 416.101,14.608 416.101,26.154C416.101,32.751 418.103,38.523 422.462,43C426.468,47.124 431.298,48.655 441.901,52.189C444.728,53.132 447.438,55.252 447.438,58.433C447.438,61.261 445.199,63.617 440.251,63.617L416.336,63.617L416.336,83.055ZM536.383,83.055L550.52,83.055C561.359,83.055 567.838,82.113 573.022,80.346C587.866,75.28 600,61.143 600,42.529C600,20.852 583.507,5.537 566.896,2.71C563.597,2.121 558.178,1.767 550.52,1.767L536.383,1.767L536.383,83.055ZM109.916,1.767L109.916,32.986L86.354,32.986L86.354,1.767L66.326,1.767L66.326,83.055L86.354,83.055L86.354,51.836L109.916,51.836L109.916,83.055L129.943,83.055L129.943,1.767L109.916,1.767ZM367.328,65.266C354.84,65.266 344.826,55.017 344.826,42.529C344.826,30.159 354.84,19.556 367.328,19.556C379.58,19.556 389.829,30.159 389.829,42.529C389.829,55.017 379.58,65.266 367.328,65.266ZM556.411,63.617L556.411,21.206C571.726,21.206 579.973,31.219 579.973,42.411C579.973,53.603 571.726,63.617 556.411,63.617Z" style="fill-rule:nonzero;"/>
</svg>
